<mxfile host="app.diagrams.net" modified="2024-07-22T02:28:12.971Z" agent="Mozilla/5.0 (Macintosh; Intel Mac OS X 10_15_7) AppleWebKit/605.1.15 (KHTML, like Gecko) Version/17.5 Safari/605.1.15" etag="zt_TogACpf4dXp2-MJ9P" version="24.7.1" type="device">
  <diagram name="Page-1" id="jYGtpfeb4U5llzFaTOck">
    <mxGraphModel dx="944" dy="586" grid="1" gridSize="10" guides="1" tooltips="1" connect="1" arrows="1" fold="1" page="1" pageScale="1" pageWidth="850" pageHeight="1100" math="0" shadow="0">
      <root>
        <mxCell id="0" />
        <mxCell id="1" parent="0" />
        <mxCell id="2eTarxXeQCqfxXBGuiIj-1" value="" style="rounded=1;whiteSpace=wrap;html=1;strokeColor=default;" parent="1" vertex="1">
          <mxGeometry x="350" y="320" width="390" height="70" as="geometry" />
        </mxCell>
        <mxCell id="2eTarxXeQCqfxXBGuiIj-2" value="&lt;font color=&quot;#ff66b3&quot;&gt;&lt;b&gt;C1 C2 C3 C4 C5&lt;/b&gt;&lt;/font&gt;" style="text;strokeColor=none;fillColor=none;align=center;verticalAlign=middle;spacingLeft=4;spacingRight=4;overflow=hidden;points=[[0,0.5],[1,0.5]];portConstraint=eastwest;rotatable=0;whiteSpace=wrap;html=1;" parent="1" vertex="1">
          <mxGeometry x="370" y="360" width="110" height="20" as="geometry" />
        </mxCell>
        <mxCell id="2eTarxXeQCqfxXBGuiIj-8" value="&lt;font style=&quot;font-size: 11px;&quot;&gt;&lt;b&gt;COMMAND&lt;/b&gt;&lt;/font&gt;" style="text;strokeColor=none;fillColor=none;align=center;verticalAlign=middle;spacingLeft=4;spacingRight=4;overflow=hidden;points=[[0,0.5],[1,0.5]];portConstraint=eastwest;rotatable=0;whiteSpace=wrap;html=1;" parent="1" vertex="1">
          <mxGeometry x="380" y="330" width="90" height="20" as="geometry" />
        </mxCell>
        <mxCell id="2eTarxXeQCqfxXBGuiIj-9" value="&lt;font color=&quot;#00ccff&quot;&gt;&lt;b&gt;M1 M2 M3 M4&amp;nbsp; &amp;nbsp; &amp;nbsp; &amp;nbsp; &amp;nbsp;... &amp;nbsp; &amp;nbsp; &amp;nbsp; &amp;nbsp; M_N&lt;/b&gt;&lt;/font&gt;" style="text;strokeColor=none;fillColor=none;align=center;verticalAlign=middle;spacingLeft=4;spacingRight=4;overflow=hidden;points=[[0,0.5],[1,0.5]];portConstraint=eastwest;rotatable=0;whiteSpace=wrap;html=1;" parent="1" vertex="1">
          <mxGeometry x="520" y="360" width="210" height="20" as="geometry" />
        </mxCell>
        <mxCell id="2eTarxXeQCqfxXBGuiIj-12" value="&lt;span style=&quot;font-size: 11px;&quot;&gt;&lt;b&gt;&amp;lt;sep&amp;gt;&lt;/b&gt;&lt;/span&gt;" style="text;strokeColor=none;fillColor=none;align=center;verticalAlign=middle;spacingLeft=4;spacingRight=4;overflow=hidden;points=[[0,0.5],[1,0.5]];portConstraint=eastwest;rotatable=0;whiteSpace=wrap;html=1;" parent="1" vertex="1">
          <mxGeometry x="470" y="359" width="70" height="20" as="geometry" />
        </mxCell>
        <mxCell id="2eTarxXeQCqfxXBGuiIj-17" value="&lt;font style=&quot;font-size: 11px;&quot;&gt;&lt;b&gt;MUSIC&lt;/b&gt;&lt;/font&gt;" style="text;strokeColor=none;fillColor=none;align=center;verticalAlign=middle;spacingLeft=4;spacingRight=4;overflow=hidden;points=[[0,0.5],[1,0.5]];portConstraint=eastwest;rotatable=0;whiteSpace=wrap;html=1;" parent="1" vertex="1">
          <mxGeometry x="540" y="330" width="170" height="20" as="geometry" />
        </mxCell>
        <mxCell id="OXsqvMeUQsUtRMULiqrR-2" value="" style="endArrow=none;html=1;rounded=0;startArrow=none;startFill=0;strokeColor=default;endFill=0;" edge="1" parent="1">
          <mxGeometry width="50" height="50" relative="1" as="geometry">
            <mxPoint x="710" y="360" as="sourcePoint" />
            <mxPoint x="540" y="360" as="targetPoint" />
            <Array as="points">
              <mxPoint x="710" y="350" />
              <mxPoint x="540" y="350" />
            </Array>
          </mxGeometry>
        </mxCell>
        <mxCell id="OXsqvMeUQsUtRMULiqrR-3" value="" style="endArrow=none;html=1;rounded=0;startArrow=none;startFill=0;strokeColor=default;endFill=0;" edge="1" parent="1">
          <mxGeometry width="50" height="50" relative="1" as="geometry">
            <mxPoint x="470" y="360" as="sourcePoint" />
            <mxPoint x="380" y="360" as="targetPoint" />
            <Array as="points">
              <mxPoint x="470" y="350" />
              <mxPoint x="380" y="350" />
            </Array>
          </mxGeometry>
        </mxCell>
      </root>
    </mxGraphModel>
  </diagram>
</mxfile>
